<?xml version="1.0" standalone="no"?>
<!DOCTYPE svg PUBLIC "-//W3C//DTD SVG 20010904//EN"
 "http://www.w3.org/TR/2001/REC-SVG-20010904/DTD/svg10.dtd">
<svg version="1.0" xmlns="http://www.w3.org/2000/svg"
 width="200.000000pt" height="125.000000pt" viewBox="0 0 200.000000 125.000000"
 preserveAspectRatio="xMidYMid meet">

<g transform="translate(0.000000,125.000000) scale(0.100000,-0.100000)"
fill="#000000" stroke="none">
<path d="M950 1175 c0 -2 53 -77 119 -166 l118 -162 -89 -121 c-49 -67 -93
-122 -98 -124 -5 -2 -49 51 -97 117 l-88 120 -58 0 c-44 1 -56 -2 -51 -11 5
-7 59 -82 121 -165 l113 -153 53 0 c64 0 54 -9 201 192 l107 146 -122 166
-122 166 -53 0 c-30 0 -54 -2 -54 -5z"/>
<path d="M705 362 c-32 -6 -55 -33 -55 -62 0 -35 14 -46 79 -66 39 -11 51 -19
51 -35 0 -30 -42 -45 -89 -31 -53 16 -60 15 -32 -8 32 -27 104 -27 131 0 37
37 18 84 -38 96 -49 10 -72 23 -72 42 0 38 48 55 92 31 24 -13 35 -5 19 15
-13 15 -54 24 -86 18z"/>
<path d="M1160 361 c-58 -13 -80 -46 -80 -116 0 -38 5 -52 29 -76 33 -33 92
-40 127 -15 28 21 11 30 -31 16 -33 -11 -40 -10 -64 7 -21 16 -27 29 -29 71
-2 41 1 55 18 72 22 22 60 24 103 5 12 -5 17 -3 17 9 0 9 -1 16 -3 16 -1 0
-16 4 -32 8 -17 5 -41 6 -55 3z"/>
<path d="M90 250 c0 -91 3 -110 15 -110 11 0 15 12 15 50 l0 50 49 0 c68 0 75
18 9 22 l-53 3 -3 38 -3 37 55 0 c31 0 56 5 56 10 0 6 -30 10 -70 10 l-70 0 0
-110z"/>
<path d="M270 250 l0 -110 80 0 c78 0 80 0 95 30 14 28 19 30 71 30 53 0 56
-2 67 -30 10 -26 37 -43 37 -24 0 21 -95 214 -105 214 -7 0 -32 -45 -56 -100
l-44 -100 -60 2 -60 3 -3 98 c-4 135 -22 124 -22 -13z m270 24 c11 -26 20 -48
20 -50 0 -2 -20 -4 -45 -4 -25 0 -45 2 -45 4 0 8 41 96 45 96 2 0 13 -21 25
-46z"/>
<path d="M850 250 c0 -67 4 -110 10 -110 6 0 10 23 10 50 l0 50 70 0 70 0 0
-50 c0 -27 5 -50 10 -50 6 0 10 43 10 110 0 67 -4 110 -10 110 -5 0 -10 -20
-10 -45 l0 -45 -70 0 -70 0 0 45 c0 25 -4 45 -10 45 -6 0 -10 -43 -10 -110z"/>
<path d="M1322 265 c-23 -53 -42 -103 -42 -111 0 -24 17 -15 30 16 12 28 16
30 66 30 49 0 55 -2 69 -30 15 -28 35 -41 35 -21 0 23 -89 206 -102 209 -9 2
-28 -29 -56 -93z m71 28 c8 -16 18 -38 21 -50 7 -21 4 -23 -33 -23 -23 0 -41
4 -41 10 0 12 31 90 36 90 2 0 10 -12 17 -27z"/>
<path d="M1520 249 c0 -84 3 -110 13 -107 6 3 13 23 15 46 3 39 5 42 32 42 29
0 63 -32 75 -71 4 -10 13 -19 21 -19 19 0 18 8 -10 57 -24 41 -24 42 -5 59 10
9 19 29 19 44 0 43 -28 60 -98 60 l-62 0 0 -111z m120 77 c6 -8 10 -25 8 -38
-3 -20 -10 -23 -50 -26 l-48 -3 0 40 c0 41 0 41 39 41 21 0 44 -6 51 -14z"/>
<path d="M1730 249 l0 -112 66 6 c85 6 117 33 118 100 2 84 -34 117 -129 117
l-55 0 0 -111z m113 80 c28 -12 47 -47 47 -84 0 -38 -39 -74 -87 -81 l-43 -7
0 92 0 91 30 0 c16 0 40 -5 53 -11z"/>
</g>
</svg>
